/* XPM */
static char *SublimeText_xpm[] = {
/* width height num_colors chars_per_pixel */
"    32    32      256            2",
/* colors */
"`` c #040204",
"`. c #848278",
"`# c #744c24",
"`a c #bcc2bc",
"`b c #343e3c",
"`c c #cc8630",
"`d c #545e64",
"`e c #949e9c",
"`f c #ac6a1c",
"`g c #54402c",
"`h c #1c221c",
"`i c #9c825c",
"`j c #8c6634",
"`k c #cca274",
"`l c #544e46",
"`m c #dce2e4",
"`n c #bc925c",
"`o c #444e4c",
"`p c #949274",
"`q c #0c1214",
"`r c #646e6c",
"`s c #7c6e54",
"`t c #dcca9c",
"`u c #243234",
"`v c #9c9678",
"`w c #644e30",
"`x c #946224",
"`y c #cc721c",
"`z c #443e3c",
"`A c #a4aeb0",
"`B c #dc862f",
"`C c #6c5e48",
"`D c #040a09",
"`E c #8c8678",
"`F c #745c3c",
"`G c #644624",
"`H c #8c7254",
"`I c #d4d2d2",
"`J c #ac7624",
"`K c #b4a684",
"`L c #9c9584",
"`M c #242a2a",
"`N c #545653",
"`O c #444648",
"`P c #54463c",
"`Q c #bcbabc",
"`R c #dc923c",
"`S c #747a74",
"`T c #646664",
"`U c #7c8a84",
"`V c #c4cac9",
"`W c #947244",
"`X c #8c9292",
"`Y c #34322c",
"`Z c #140a04",
"`0 c #745e44",
"`1 c #bc824c",
"`2 c #a4a6a1",
"`3 c #e4b67c",
"`4 c #ecf2f4",
"`5 c #4c5657",
"`6 c #1c1a19",
"`7 c #dcd6d4",
"`8 c #e48634",
".` c #bc7e2c",
".. c #4c4648",
".# c #6c7677",
".a c #ac946c",
".b c #645648",
".c c #242a34",
".d c #949a98",
".e c #3c3a39",
".f c #544634",
".g c #ac8e5c",
".h c #444e54",
".i c #dc8e2c",
".j c #0c0b08",
".k c #846030",
".l c #5c5958",
".m c #140604",
".n c #7c8484",
".o c #745234",
".p c #3c4647",
".q c #eca244",
".r c #ece6e5",
".s c #c49e5c",
".t c #6c7071",
".u c #6c6858",
".v c #8c8b8c",
".w c #847e6c",
".x c #949392",
".y c #0c0304",
".z c #ccc6c4",
".A c #cc8c40",
".B c #5c686c",
".C c #ac722c",
".D c #9c8c70",
".E c #a4661c",
".F c #5c4e44",
".G c #141a20",
".H c #847660",
".I c #a49670",
".J c #d47a14",
".K c #b4b6b4",
".L c #d48840",
".M c #ac7644",
".N c #9c9a8f",
".O c #d4964c",
".P c #7c7d79",
".Q c #6c6a6a",
".R c #3c3636",
".S c #dcded7",
".T c #e4aa64",
".U c #c4c3c3",
".V c #3c3e3b",
".W c #9ca199",
".X c #242422",
".Y c #e4eaec",
".Z c #645240",
".0 c #acb0af",
".1 c #64615a",
".2 c #644a38",
".3 c #d4dad4",
".4 c #aca8a2",
".5 c #2c2b2a",
".6 c #54585c",
".7 c #444a54",
".8 c #5c4a3c",
"#` c #cccdca",
"#. c #ecba84",
"## c #ecc68c",
"#a c #ac7224",
"#b c #bc8e5c",
"#c c #fcfefc",
"#d c #9c621c",
"#e c #e49c40",
"#f c #746e74",
"#g c #f4b66c",
"#h c #bc6804",
"#i c #a47430",
"#j c #a46e3c",
"#k c #cc9254",
"#l c #846244",
"#m c #c49e6f",
"#n c #cc8a4c",
"#o c #9c7654",
"#p c #ecaa5c",
"#q c #ac7e4c",
"#r c #8c6039",
"#s c #c47d3f",
"#t c #d48e44",
"#u c #d49e5c",
"#v c #f4be7c",
"#w c #cc8440",
"#x c #9c969c",
"#y c #eca65c",
"#z c #a47244",
"#A c #7c4e24",
"#B c #94662f",
"#C c #e4e5e2",
"#D c #141410",
"#E c #d47618",
"#F c #4c4237",
"#G c #94846c",
"#H c #e4962c",
"#I c #6c5840",
"#J c #7c5428",
"#K c #948a7c",
"#L c #a48c68",
"#M c #dc7e24",
"#N c #ecaa64",
"#O c #f4c27c",
"#P c #ac9a64",
"#Q c #74766c",
"#R c #ac7244",
"#S c #9c7234",
"#T c #e4dedc",
"#U c #5c6060",
"#V c #5c4229",
"#W c #a48664",
"#X c #4c4e4b",
"#Y c #6c5234",
"#Z c #7c5b39",
"#0 c #6c4929",
"#1 c #947458",
"#2 c #848c8a",
"#3 c #241e1c",
"#4 c #2c2e34",
"#5 c #5c4833",
"#6 c #4c5055",
"#7 c #848685",
"#8 c #cc9a54",
"a` c #dc8a40",
"a. c #b4793e",
"a# c #6c6254",
"aa c #744e34",
"ab c #545254",
"ac c #7c7264",
"ad c #544a4c",
"ae c #747e84",
"af c #8c969c",
"ag c #34353c",
"ah c #746254",
"ai c #a4a9ac",
"aj c #4c4a54",
"ak c #b48a5c",
"al c #0c0a14",
"am c #84603c",
"an c #5c5254",
"ao c #e4ae74",
"ap c #3c4144",
"aq c #9ca1a4",
"ar c #24262c",
"as c #aca6ac",
"at c #ccced4",
"au c #f4be84",
"av c #e4e6ec",
"aw c #14161c",
"ax c #e4ca94",
"ay c #2c322c",
"az c #f4f2ec",
"aA c #949284",
"aB c #040a14",
"aC c #3c3a44",
"aD c #a4967c",
"aE c #9c9a9c",
"aF c #6c6a74",
"aG c #dcdee4",
"aH c #b47e4c",
"aI c #040605",
"aJ c #84867c",
"aK c #bcc6c4",
"aL c #54625c",
"aM c #8c6a3c",
"aN c #54524c",
"aO c #bc9664",
"aP c #647270",
"aQ c #9c9a7c",
"aR c #cc7624",
"aS c #444244",
"aT c #d4d6d1",
"aU c #545a54",
"aV c #444a4c",
"aW c #544a40",
"aX c #747e7c",
"aY c #646a6a",
"aZ c #8c9694",
"a0 c #343634",
"a1 c #140e08",
"a2 c #bc8654",
"a3 c #a4aaa4",
"a4 c #1c1e1c",
"a5 c #dcdadc",
"a6 c #e48a3c",
"a7 c #4c4a47",
"a8 c #242e37",
/* pixels */
"aB``aI````.j.y``.y``.y``aI````aI````````````.y``aI``aI````aI``aB",
"``````aB````.j````````````````````````````````````.j````.j``````",
"aI`q``````a4.R.5`Ya0`Ya0ayagayag`Y.R.R.Ragagagag.X.e`h```D``.jaB",
"````````.V.W`2.0.4aiaia3aia3aia3`2.4`2.4asas`2ai.4.0.N#4````````",
"``````.X.Pai`X.d`e`e.d.d.N.d.N.NaQ`L.N#x#x.d#x.d.d.d.W.Q`M``````",
"``a1``aJ.K`X`Xaf`XaZ`XaAaA`L`LaD`LaQ`LaA.x.v`X`X`X`X`X.K#2aI.y``",
"``.j``.Kaq.#`U#2.n.naJ`E.D#L#L.a.I.I#K`p`E#7#7.n#2#2.t`A.U``aI``",
".y``.j`V.nae.naeae.P.w#G`i.g`naO#P.I.D`E`..P.P.P.nae`SaJaT.j````",
".y```M`VaXaP.#aP#Qac.H#W#m#.#v#v##axax`K.H.u#Q.t.taP.t`Sata4``.y",
"aI``ay`VaY.B.B.Q.1a##1#m#.#g#N.O#8.s#m#L`sah.Q.B`r.B`raY.3.5``.y",
"aI``ap`V`5`d#U.1.1#I`H`k#.#N`c`f`J#i#S`j`F`Ca#.l#U`daL`N.3aS````",
"aI``aUaK`O.6.l`N.b.Z#lakao#g#y#e.`.``J#B#J#Y.b`N`N`5aU`Oat.l``.y",
"aI``.t.0aC#6#6a7`l.8`w.k#q#8.T#p.q.q`ca.`j#Y.8`l#X#X`5apaK#f````",
"aI```.aq.V#6#6..`P`P#5`G.o#B#S#a.i#H`R.A#z#Z#5aWa7#X#6`b.0aJ``.y",
"````aE.x.Vabaja7..aW.Z`F#Z.k.k#d#h.J`B.A`1.k#5`P#XaV.hapaq.N````",
"`````2#7aS`Oaj#X`l.F`0`H`W#B`x.E#h#E#M#ta2#r#V`PabaV`Oap.dai````",
"`````Q.t`b#6..#X`P`F#o#b.O#saR`y#E#M`R.L#R#Z.2aWa7.7.h.p.P`a````",
"``.jaK.tap.haV`l#F.2amaH#na``B`8a6a`#w#R#r#0`P..a7.h`o.p#Q#`.j``",
"``#D.U.6`O#6aV#X`l#5#Y#r#za.#s#s#sa.#j#r#Y#V`Pab`O#6`OapaY#`a1``",
"```Y.za7#6#6#X#X#X#F`g#5#0`##A#A#A`#`G#V#V#F..#X#6`5.haV#U`7.5``",
"``...U.e#6`O.7`O#6#X..`P.8#5#5.2#5#5#5aW`l`l#6#X.p#6.7`O#XaT.e``",
"``an.UaS#X#6#6#6aVa7#6#X......a7aW#X#Xa7#X#X.7aV.h#6#6`O#X`7#F``",
"``.Q`7.laba7ab#6#6#6.6#6`5#6#6#6`5`5#6#6#6`5.6#6`5a7`5aN#U#C`T``",
"``.t`I.laC.5.5.5ar.c.c.ca8a8`ua8`M`u`ua8`Ma8a8`M`Y`ha0.e#U#CaY``",
"``#7`Iar`Yaw`6aw`6`6`6aw.G.G.G.G.G.G.G.G.G.G#D`6#D.jar#4a0.Y`.``",
"``aqazae..aS`zan..`O..`Oaj`O.7`O.7aVaVaV..a7a7a7ab`O`z#X.v.Y`A``",
"`D`X.Y.rav#c#Ta5.r.r.rav.rav.rav.rav.r.r.r#C.r.r.Saz`4#C#C.Saq``",
"``.t`mav`Iat`I#T`7`7`7`7`7`7`7`7`7`7`7`7`7`7`7`7.S#`#`a5.SavaY``",
"```q.Vap#6aj.6#6aj#Xa7ada7adadada7a7a7a7a7#Xa7a7a7#Xan`N.eab````",
"````````````````````````````````````````````````````````````````",
"``````.jaI````````````````````.y````````````aIaIaI`D````.j``.m``",
"````````aI``aI````````````````````````````````````````````.y``.y"
};
