/* XPM */
static char *Console_xpm[] = {
/* width height num_colors chars_per_pixel */
"    32    32      256            2",
/* colors */
"`` c #000000",
"`. c #010101",
"`# c #444444",
"`a c #8c8c8c",
"`b c #838383",
"`c c #848484",
"`d c #8b8b8b",
"`e c #424242",
"`f c #757575",
"`g c #e6e6e6",
"`h c #e0e0e0",
"`i c #e4e4e4",
"`j c #e3e3e3",
"`k c #e2e2e2",
"`l c #e5e5e5",
"`m c #e8e8e8",
"`n c #6b6b6b",
"`o c #d7d7d7",
"`p c #8a8a8a",
"`q c #5a5a5a",
"`r c #606060",
"`s c #5f5f5f",
"`t c #616161",
"`u c #5e5e5e",
"`v c #5d5d5d",
"`w c #5b5b5b",
"`x c #5c5c5c",
"`y c #565656",
"`z c #888888",
"`A c #6c6c6c",
"`B c #dbdbdb",
"`C c #1b1b1b",
"`D c #232323",
"`E c #212121",
"`F c #252525",
"`G c #202020",
"`H c #1f1f1f",
"`I c #1e1e1e",
"`J c #1d1d1d",
"`K c #1c1c1c",
"`L c #1a1a1a",
"`M c #191919",
"`N c #0c0c0c",
"`O c #dddddd",
"`P c #6a6a6a",
"`Q c #dadada",
"`R c #676767",
"`S c #656565",
"`T c #7e7e7e",
"`U c #454545",
"`V c #303030",
"`W c #2c2c2c",
"`X c #2b2b2b",
"`Y c #292929",
"`Z c #282828",
"`0 c #272727",
"`1 c #262626",
"`2 c #242424",
"`3 c #222222",
"`4 c #161616",
"`5 c #626262",
"`6 c #d8d8d8",
"`7 c #646464",
"`8 c #cfcfcf",
".` c #d3d3d3",
".. c #9b9b9b",
".# c #2e2e2e",
".a c #141414",
".b c #686868",
".c c #d6d6d6",
".d c #666666",
".e c #464646",
".f c #a0a0a0",
".g c #ffffff",
".h c #cccccc",
".i c #2d2d2d",
".j c #121212",
".k c #d4d4d4",
".l c #636363",
".m c #c9c9c9",
".n c #a2a2a2",
".o c #2a2a2a",
".p c #d5d5d5",
".q c #d2d2d2",
".r c #181818",
".s c #828282",
".t c #434343",
".u c #414141",
".v c #484848",
".w c #090909",
".x c #d0d0d0",
".y c #353535",
".z c #b9b9b9",
".A c #4a4a4a",
".B c #171717",
".C c #131313",
".D c #111111",
".E c #0f0f0f",
".F c #040404",
".G c #cecece",
".H c #404040",
".I c #494949",
".J c #101010",
".K c #cdcdcd",
".L c #151515",
".M c #cacaca",
".N c #cbcbcb",
".O c #c7c7c7",
".P c #c3c3c3",
".Q c #c5c5c5",
".R c #c1c1c1",
".S c #585858",
".T c #c2c2c2",
".U c #bfbfbf",
".V c #0e0e0e",
".W c #030303",
".X c #575757",
".Y c #c0c0c0",
".Z c #bebebe",
".0 c #0d0d0d",
".1 c #bcbcbc",
".2 c #b8b8b8",
".3 c #555555",
".4 c #b3b3b3",
".5 c #535353",
".6 c #545454",
".7 c #afafaf",
".8 c #515151",
"#` c #0b0b0b",
"#. c #0a0a0a",
"## c #080808",
"#a c #070707",
"#b c #060606",
"#c c #050505",
"#d c #4c4c4c",
"#e c #a5a5a5",
"#f c #787878",
"#g c #505050",
"#h c #767676",
"#i c #4f4f4f",
"#j c #9f9f9f",
"#k c #a1a1a1",
"#l c #9a9a9a",
"#m c #9e9e9e",
"#n c #525252",
"#o c #000000",
"#p c #000000",
"#q c #000000",
"#r c #000000",
"#s c #000000",
"#t c #000000",
"#u c #000000",
"#v c #000000",
"#w c #000000",
"#x c #000000",
"#y c #000000",
"#z c #000000",
"#A c #000000",
"#B c #000000",
"#C c #000000",
"#D c #000000",
"#E c #000000",
"#F c #000000",
"#G c #000000",
"#H c #000000",
"#I c #000000",
"#J c #000000",
"#K c #000000",
"#L c #000000",
"#M c #000000",
"#N c #000000",
"#O c #000000",
"#P c #000000",
"#Q c #000000",
"#R c #000000",
"#S c #000000",
"#T c #000000",
"#U c #000000",
"#V c #000000",
"#W c #000000",
"#X c #000000",
"#Y c #000000",
"#Z c #000000",
"#0 c #000000",
"#1 c #000000",
"#2 c #000000",
"#3 c #000000",
"#4 c #000000",
"#5 c #000000",
"#6 c #000000",
"#7 c #000000",
"#8 c #000000",
"a` c #000000",
"a. c #000000",
"a# c #000000",
"aa c #000000",
"ab c #000000",
"ac c #000000",
"ad c #000000",
"ae c #000000",
"af c #000000",
"ag c #000000",
"ah c #000000",
"ai c #000000",
"aj c #000000",
"ak c #000000",
"al c #000000",
"am c #000000",
"an c #000000",
"ao c #000000",
"ap c #000000",
"aq c #000000",
"ar c #000000",
"as c #000000",
"at c #000000",
"au c #000000",
"av c #000000",
"aw c #000000",
"ax c #000000",
"ay c #000000",
"az c #000000",
"aA c #000000",
"aB c #000000",
"aC c #000000",
"aD c #000000",
"aE c #000000",
"aF c #000000",
"aG c #000000",
"aH c #000000",
"aI c #000000",
"aJ c #000000",
"aK c #000000",
"aL c #000000",
"aM c #000000",
"aN c #000000",
"aO c #000000",
"aP c #000000",
"aQ c #000000",
"aR c #000000",
"aS c #000000",
"aT c #000000",
"aU c #000000",
"aV c #000000",
"aW c #000000",
"aX c #000000",
"aY c #000000",
"aZ c #000000",
"a0 c #000000",
"a1 c #000000",
"a2 c #000000",
"a3 c #000000",
"a4 c #000000",
"a5 c #000000",
"a6 c #000000",
"a7 c #000000",
"a8 c #000000",
/* pixels */
"```.```````````````````````.````````````````````````````````````",
"```````````````.```````````.```````````````````````````````````.",
"`````````.```````````.```````````````````````````````````````.``",
"```#`a`b`c`c`c`b`c`b`c`c`c`c`c`c`c`c`c`c`c`c`c`c`c`c`b`b`c`d`e``",
"```f`g`h`i`j`j`i`j`j`i`j`j`j`i`i`j`j`j`j`i`i`i`i`j`i`k`l`h`m`f``",
"`.`n`o`p`q`r`s`r`r`s`t`r`r`r`r`r`s`s`u`u`u`u`v`v`w`x`w`y`z`o`n``",
"```A`B`t`C`D`E`F`D`E`E`E`E`E`E`G`H`H`I`I`J`K`K`C`C`L`M`N`v`O`n``",
"`.`P`Q`R`I`S`T`U`V`W`X`Y`Y`Y`Y`Z`0`0`1`F`F`2`D`D`3`D`E`4`5`6`P``",
"```P`o`S`J`7`8.`..`y.#`Z`0`0`1`1`1`F`2`2`D`3`3`E`G`G`H.a`t`o.b``",
"``.b.c.d`H.#.e.f.g.h.i`1`F`F`2`2`D`D`3`3`E`H`G`H`H`I`I.j`r.c.b``",
"```R.k.l`L`s.m.k.n`q.o`0`F`2`F`D`3`3`E`G`G`H`H`I`I`I`I.j`r.p`R``",
"```R.q`7.r`5.s.t`X.i.u.e.v`e`W`2`E`E`G`G`H`H`H`H`K`L`4.w`u.`.d``",
"```S.x`7`C`D`3`1`2.y.z`8.x.m.A`G`E`E`G`G`G`I`C.B.C.D.E.F`v.q`S``",
"```7.G.l`M`D`2`3`D`W.H.A.I.t.i`3`E`E`G`K.B.C.j.D.D.J.J.F`x.G`7``",
"`..l.K`5.r`D`D`D`D`2`F`2`2`D`D`E`I`L.L.j.j.j.j.D.D.J.J.F`x.K.l``",
"``.l.M.l`M`D`D`D`D`D`3`3`3`G`J.B.a.C.C.C.j.D.D.D.J.J.J.F`x.N`5`.",
"```t.m`t`M`2`D`D`D`2`3`H`L`4.L.a.a.C.C.j.j.D.D.D.J.J.E.F`w.M`t``",
"```s.O`t`M`D`D`2`D`I`M`4.L.L.L.a.a.C.C.j.j.D.D.J.J.E.E.F`q.O`s``",
"```u.P`s`M`2`E`J.r.L`4`4.L`4.a.a.a.C.C.j.j.D.D.J.J.E.E.F`q.Q`u``",
"```v.R`r.B`J.r`4`4.L`4.L.a.L.a.a.C.C.C.j.D.J.J.J.E.E.E.F.S.T`v``",
"```x.U`x.J.B`4.r`4`4`4.L.L.L.a.C.C.j.j.D.D.D.J.E.E.E.V.W.X.Y`x``",
"```w.Z`q.0.B.B.L`4.B`4.L.L.a.a.C.C.j.j.D.J.J.J.E.E.E.V.W.X.U`x``",
"`.`q.1`w.0.B.B`4`4`4.L.L.L.a.a.C.j.j.j.D.J.J.J.E.E.E.0.W`y.1`q``",
"``.S.2.S.0.B`4`4`4.L`4.L.L.a.C.C.j.j.D.D.J.J.J.V.V.V.0.W.3.2.S``",
"```y.4.X.V`4`4`4`4.L.a.a.a.a.C.j.j.j.D.D.J.E.E.V.V.E.0.W.5.4`y``",
"``.6.7.8.W.0.0.V`N#`#`#`#`#.#..w.w###a#a#a#a#b#c#c.F.F``#d.7.5``",
"`..8#e#f.6`y`y`y`y`y`y`y.3.3.3.3.3.6.6.6.6.6.6.6.6.6.5#g#h#e#g``",
"``#i.f..#j.f#j#j#j#j#j#j#j#j#j#j#j#j.f.f#j#j#j.f.f.f#k.f#l#m#g`.",
"``.o`y.8.8#g.8.8.8.8.8.8.8.8.8#n.8.8.8.8.8.8.8.8.8.8#g.8#n`y.o``",
"`````````````.```````````````````.```````````````````````````.``",
"```.```````.```````````````````````````````````.```.```````````.",
"`````````.```````````````````````````````````````````.```.```.``"
};
