/* XPM */
static char *___Maya_to_Nuke_NORMAL[] = {
/* columns rows colors chars-per-pixel */
"32 32 256 2",
"   c black",
".  c #080000",
"X  c #060406",
"o  c #100000",
"O  c #100808",
"+  c #180808",
"@  c #130502",
"#  c #181010",
"$  c #200808",
"%  c #290404",
"&  c #200810",
"*  c #201808",
"=  c #291808",
"-  c #201008",
";  c #201010",
":  c #291410",
">  c #310000",
",  c #310808",
"<  c #390000",
"1  c #390808",
"2  c #351408",
"3  c #351010",
"4  c #311820",
"5  c #312010",
"6  c #392010",
"7  c #392910",
"8  c #392908",
"9  c #312629",
"0  c #410000",
"q  c #410808",
"w  c #4A0000",
"e  c #4A0808",
"r  c #411010",
"t  c #4A1010",
"y  c #4A1818",
"u  c #520000",
"i  c #520808",
"p  c #5A0000",
"a  c #5A0808",
"s  c #521010",
"d  c #5A1818",
"f  c #521818",
"g  c #412010",
"h  c #452910",
"j  c #483412",
"k  c #523910",
"l  c #573412",
"z  c #412D08",
"x  c #4A2323",
"c  c #413634",
"v  c #542522",
"b  c #563533",
"n  c #620000",
"m  c #6A0000",
"M  c #6A0808",
"N  c #620808",
"B  c #671515",
"V  c #730000",
"C  c #730808",
"Z  c #7B0000",
"A  c #7B0808",
"S  c #7B1313",
"D  c #703410",
"F  c #622929",
"G  c #683737",
"H  c #772020",
"J  c #733939",
"K  c #5A4118",
"L  c #624118",
"P  c #624A18",
"I  c #684712",
"U  c #735218",
"Y  c #7B5A18",
"T  c #735A18",
"R  c #734E18",
"E  c #7B4120",
"W  c #4A4545",
"Q  c #554444",
"!  c #6A4545",
"~  c #625656",
"^  c #7B4141",
"/  c #735656",
"(  c #6A6666",
")  c #776A6A",
"_  c #797979",
"`  c #5A7B94",
"'  c #6A7B9C",
"]  c #4A9CD5",
"[  c #4594D5",
"{  c #529CD5",
"}  c #529CDE",
"|  c #5A9CC5",
" . c #52A4DE",
".. c #5AA4DE",
"X. c #5AACE6",
"o. c #629CC5",
"O. c #73ACCD",
"+. c #77A8CD",
"@. c #62ACE6",
"#. c #6AB4E6",
"$. c #73BDEE",
"%. c #7BBDEE",
"&. c #73B4E6",
"*. c #73BDF6",
"=. c #7BC5F6",
"-. c #7BC5FF",
";. c #830000",
":. c #830808",
">. c #831010",
",. c #8B1010",
"<. c #940000",
"1. c #980808",
"2. c #941818",
"3. c #833910",
"4. c #832020",
"5. c #8B2525",
"6. c #873131",
"7. c #962727",
"8. c #943131",
"9. c #9C3131",
"0. c #A41414",
"q. c #A62727",
"w. c #AC3434",
"e. c #B72929",
"r. c #B43131",
"t. c #BD3131",
"y. c #B73939",
"u. c #835618",
"i. c #985A18",
"p. c #8F4A14",
"a. c #9C5220",
"s. c #835A39",
"d. c #986A18",
"f. c #866420",
"g. c #946A20",
"h. c #9C6A22",
"j. c #9C7323",
"k. c #AC5A18",
"l. c #A46218",
"z. c #A97820",
"x. c #AC6A25",
"c. c #864141",
"v. c #9C4141",
"b. c #9C4A4A",
"n. c #944444",
"m. c #8F6641",
"M. c #897575",
"N. c #966565",
"B. c #967878",
"V. c #A44141",
"C. c #A44A4A",
"Z. c #AC4545",
"A. c #AC5656",
"S. c #B44141",
"D. c #BD4141",
"F. c #BD4A4A",
"G. c #B44A4A",
"H. c #B75252",
"J. c #AA754F",
"K. c #AA6565",
"L. c #A67777",
"P. c #BB6464",
"I. c #B77373",
"U. c #C82727",
"Y. c #C53131",
"T. c #CD3939",
"R. c #C53939",
"E. c #D53131",
"W. c #D57B20",
"Q. c #C54141",
"!. c #C74A4A",
"~. c #C95252",
"^. c #C86565",
"/. c #C87878",
"(. c #D57373",
"). c #D56262",
"_. c #BD8B29",
"`. c #B98525",
"'. c #9C8373",
"]. c #AC8352",
"[. c #B49C77",
"{. c #B09873",
"}. c #C58B29",
"|. c #CD8925",
" X c #CD9429",
".X c #C99829",
"XX c #DA8824",
"oX c #DE9C29",
"OX c #D79629",
"+X c #D59C31",
"@X c #DEA431",
"#X c #DEA429",
"$X c #E6992B",
"%X c #E9A429",
"&X c #EAA831",
"*X c #FFAC31",
"=X c #F6AC31",
"-X c #FFB431",
";X c #FFBD31",
":X c #F6B431",
">X c #FAB029",
",X c #C59C73",
"<X c #DEB47B",
"1X c #FFC531",
"2X c #9B8786",
"3X c #A89696",
"4X c #B98787",
"5X c #B99C9C",
"6X c #AC9487",
"7X c #BDAC94",
"8X c #B9A7A7",
"9X c #BDB4B4",
"0X c #8BACC5",
"qX c #83C5F6",
"wX c #8BCDF6",
"eX c #8BCDFF",
"rX c #83CDFF",
"tX c #8BD5FF",
"yX c #94D5FF",
"uX c #94DEFF",
"iX c #A4CDEE",
"pX c #ACD5F6",
"aX c #B4DEF6",
"sX c #B4D5F6",
"dX c #C88585",
"fX c #C99898",
"gX c #D98B8B",
"hX c #DC9A9A",
"jX c #CDBD9C",
"kX c #C9B08B",
"lX c #C9A9A9",
"zX c #CDB4B4",
"xX c #C9BBBB",
"cX c #D9ACAC",
"vX c #D7B9B9",
"bX c #E6B9B9",
"nX c #D5C5AC",
"mX c #F6DEA4",
"MX c #CDCDCD",
"NX c #D5C5C5",
"BX c #DACACA",
"VX c #DED5D5",
"CX c #DEDEDE",
"ZX c #D5D5D5",
"AX c #E6C5C5",
"SX c #E6CDCD",
"DX c #EEC5C5",
"FX c #E6D5D5",
"GX c #EED5D5",
"HX c #EEDEDE",
"JX c #F6D5D5",
"KX c #EEEEEE",
"LX c #F6E6E6",
"PX c #F6EEEE",
"IX c #FCF9F9",
"UX c #EEF6F6",
/* pixels */
"K.dXdX/.P.y.e.r.Q.D.S.S.S.S.V.S.V.V.v.v.v.v.v.b.b.n.c.c.J J G G ",
"L.9XCXUXFXKXLXhXQ.Q.Q.D.D.F.S.S.Z.Z.C.V.V.C.C.C.b.b.c.c.^ J J J ",
"q.w.I.NXNXfXSXLXIXgXR.Q.!.D.D.G.G.Z.C.C.C.C.C.C.b.b.s.c.^ J J J ",
"e.U.U.Q.vXbXD.gXAXLXGX~.R.!.F.F.G.Z.9.9.9.8.7.7.5.4.4.B B d d d ",
"e.Y.T.E.!.bXhXE.^.hXSXPX^.y.D.r.0.1.;.;.Z Z ;.Z V m n p a i i i ",
"Y.Y.T.T.U.).JX~.(.AXdXvXPXH.0.1.<.Z a D i.z.z.h.I 2 < a i s s s ",
"t.Y.R.JXDXU.hXcXy.gXAXdXlXHX2.<.C 3.z.k.R l l I h..Xg.@ q t t t ",
"t.t.(.HXBXGX^.SXF./.I.vXA.lXSXM k.i.l g o . . . j L g.+X4 , t t ",
"r.t.AXfXw.cXFXFXP.fXA.C.AXv.xX[.D D W.XXh . .   |.:XY P @X= 3 r ",
"r.F.NXH.t.y.lXIXK./.4X;.I.lXJ.nXE XXXX$XOXg .   |.-X;Xf.U }.X r ",
"e.fXlXP.lXy.q.zX4XI.lX;.>.5XJ.'.<XXXXXXX$X$Xh.j.>X*X*X;XP `.L o ",
"q.zX4XI.4XA.<.5.b.fXL.Z V J.7X].mX|.OXoX$X%XoXP _.*X-X1X#XP }.  ",
"7.NXK.A.AXCX,.;.:.zXN.V V h.2Xs.kXm.u.u.d.oX}.  X &X`.h.f.=  X* ",
"9.CXvX8X4XxX>.Z 8.MX6.m m a.) Q ~ ( . . . 8 %Xg.7 oX=       _.z ",
"8.lX3XS 4XlXA V K.8Xp n p p.~ ) Q ' . . .   h &X>X;X7       `.k ",
"5.6.S >.VXB.m C xX8XlXvXL.p.b _ c M.o . . .   L -X-X.X@     _.7 ",
"4.4.Z K.MXH p L.IXVX8X8XCXjXg 9 c _ X . .     3 =X-X;X`.X O .X* ",
"H S m 5X9Xn M CXxXv w w b 7X{.O 7 _ . . .     z *X*X*X1Xf.j }.  ",
"H M n 8X2Xi N.BXv w u w 0 v kX9 9 ( . .       j -X*X-X;Xk _.K O ",
"B N u N.3Xw 2X2X0 i e e 1 > m.[.W Q .         k -X-X;XU Y _.  : ",
"B p w F 9Xf 2X/ 0 e q < 1 > , ].6X9 .         P 1X%XL P @X* ; ; ",
"i i w e 2X2XM.J < 1 1 y y r > x ,Xj.6         5 Y j j. X: & ; ; ",
"e e e 0 v 8X9XM.1 < > x 2XB.1 r Q k z.z.Y L L T z. Xf.O + ; ; ; ",
"e e e 1 < b 3X9XB.v x ! 3Xb > , , , $ 6 U g.d.f.k O O + + # # ; ",
"w 1 q q q < q / 2X2X2XM.b % , , , , $ + + O O o . O O O + # # # ",
"] ] { { { { {  . . . . . . . . . . . . . . . . . .} { { { { ] [ ",
"]   iXiXiX  pXsX0X    0XaXaX  aXaX  aX  aXaX  aX  pX  iX      ] ",
"}     X.    *.-.  -.-.  -.-.    -.  -.  -.-.  -.  |   #.  .. .} ",
" .  @.  $.  rXtXtXO.  O.tXtX  tX    tX  tXtX  tX    o.$.    .. .",
"X.  #.&.=.  tXyXO.  uXuXyXyX  yXuX  yX  uXuX  uX  +.  =.  #.@.X.",
"@.  %.%.%.  eXyX        yXyX  yXyX  yXO.    +.yX  eX  %.      @.",
"' $.=.qXqXqXqXqXwXwXwXwXwXwXeXwXeXwXwXeXwXwXwXwXqXqXqXqXqX=.$.` "
};
