/* XPM */
static char *Nuke_xpm[] = {
/* width height num_colors chars_per_pixel */
"    32    32      256            2",
/* colors */
"`` c #040204",
"`. c #946a1c",
"`# c #dc9e2c",
"`a c #443614",
"`b c #bc8624",
"`c c #2c1e0c",
"`d c #fcba34",
"`e c #744e1c",
"`f c #ac7624",
"`g c #ecae34",
"`h c #1c1204",
"`i c #d4922c",
"`j c #5c4614",
"`k c #9c721c",
"`l c #eca22c",
"`m c #cc8e2c",
"`n c #442e0c",
"`o c #fcc634",
"`p c #845e1c",
"`q c #2c1a0c",
"`r c #140e04",
"`s c #9c6a1c",
"`t c #c48624",
"`u c #fcae34",
"`v c #241a04",
"`w c #6c4e14",
"`x c #543a14",
"`y c #34260c",
"`z c #94621c",
"`A c #140a04",
"`B c #e4a62c",
"`C c #b47e24",
"`D c #241604",
"`E c #d49a2c",
"`F c #a47224",
"`G c #ecaa34",
"`H c #fcce3c",
"`I c #9c6e1c",
"`J c #0c0a04",
"`K c #e49e2c",
"`L c #bc8a24",
"`M c #34220c",
"`N c #fcc234",
"`O c #f4ae34",
"`P c #6c4a14",
"`Q c #4c3214",
"`R c #fcca3c",
"`S c #8c661c",
"`T c #c48a24",
"`U c #fcb634",
"`V c #6c521c",
"`W c #5c4214",
"`X c #040604",
"`Y c #946a24",
"`Z c #4c3614",
"`0 c #2c220c",
"`1 c #fcbe34",
"`2 c #74521c",
"`3 c #ac7a24",
"`4 c #1c1604",
"`5 c #d4962c",
"`6 c #644614",
"`7 c #9c7224",
"`8 c #eca62c",
".` c #cc922c",
".. c #44320c",
".# c #fcc63c",
".a c #8c621c",
".b c #141204",
".c c #9c6a24",
".d c #fcb234",
".e c #241a0c",
".f c #6c4e1c",
".g c #543e14",
".h c #3c2a0c",
".i c #94661c",
".j c #bc8224",
".k c #24160c",
".l c #dc9a2c",
".m c #a47624",
".n c #f4aa34",
".o c #9c6e24",
".p c #e4a22c",
".q c #bc8a2c",
".r c #f4b234",
".s c #c48a2c",
".t c #000000",
".u c #000000",
".v c #000000",
".w c #000000",
".x c #000000",
".y c #000000",
".z c #000000",
".A c #000000",
".B c #000000",
".C c #000000",
".D c #000000",
".E c #000000",
".F c #000000",
".G c #000000",
".H c #000000",
".I c #000000",
".J c #000000",
".K c #000000",
".L c #000000",
".M c #000000",
".N c #000000",
".O c #000000",
".P c #000000",
".Q c #000000",
".R c #000000",
".S c #000000",
".T c #000000",
".U c #000000",
".V c #000000",
".W c #000000",
".X c #000000",
".Y c #000000",
".Z c #000000",
".0 c #000000",
".1 c #000000",
".2 c #000000",
".3 c #000000",
".4 c #000000",
".5 c #000000",
".6 c #000000",
".7 c #000000",
".8 c #000000",
"#` c #000000",
"#. c #000000",
"## c #000000",
"#a c #000000",
"#b c #000000",
"#c c #000000",
"#d c #000000",
"#e c #000000",
"#f c #000000",
"#g c #000000",
"#h c #000000",
"#i c #000000",
"#j c #000000",
"#k c #000000",
"#l c #000000",
"#m c #000000",
"#n c #000000",
"#o c #000000",
"#p c #000000",
"#q c #000000",
"#r c #000000",
"#s c #000000",
"#t c #000000",
"#u c #000000",
"#v c #000000",
"#w c #000000",
"#x c #000000",
"#y c #000000",
"#z c #000000",
"#A c #000000",
"#B c #000000",
"#C c #000000",
"#D c #000000",
"#E c #000000",
"#F c #000000",
"#G c #000000",
"#H c #000000",
"#I c #000000",
"#J c #000000",
"#K c #000000",
"#L c #000000",
"#M c #000000",
"#N c #000000",
"#O c #000000",
"#P c #000000",
"#Q c #000000",
"#R c #000000",
"#S c #000000",
"#T c #000000",
"#U c #000000",
"#V c #000000",
"#W c #000000",
"#X c #000000",
"#Y c #000000",
"#Z c #000000",
"#0 c #000000",
"#1 c #000000",
"#2 c #000000",
"#3 c #000000",
"#4 c #000000",
"#5 c #000000",
"#6 c #000000",
"#7 c #000000",
"#8 c #000000",
"a` c #000000",
"a. c #000000",
"a# c #000000",
"aa c #000000",
"ab c #000000",
"ac c #000000",
"ad c #000000",
"ae c #000000",
"af c #000000",
"ag c #000000",
"ah c #000000",
"ai c #000000",
"aj c #000000",
"ak c #000000",
"al c #000000",
"am c #000000",
"an c #000000",
"ao c #000000",
"ap c #000000",
"aq c #000000",
"ar c #000000",
"as c #000000",
"at c #000000",
"au c #000000",
"av c #000000",
"aw c #000000",
"ax c #000000",
"ay c #000000",
"az c #000000",
"aA c #000000",
"aB c #000000",
"aC c #000000",
"aD c #000000",
"aE c #000000",
"aF c #000000",
"aG c #000000",
"aH c #000000",
"aI c #000000",
"aJ c #000000",
"aK c #000000",
"aL c #000000",
"aM c #000000",
"aN c #000000",
"aO c #000000",
"aP c #000000",
"aQ c #000000",
"aR c #000000",
"aS c #000000",
"aT c #000000",
"aU c #000000",
"aV c #000000",
"aW c #000000",
"aX c #000000",
"aY c #000000",
"aZ c #000000",
"a0 c #000000",
"a1 c #000000",
"a2 c #000000",
"a3 c #000000",
"a4 c #000000",
"a5 c #000000",
"a6 c #000000",
"a7 c #000000",
"a8 c #000000",
/* pixels */
"`````````````````````r`6`3`K`U`1`1.d`K`3`6.b````````````````````",
"`````````````````v`I.r`o`U.l.j`f`f.j`#`U`o.r`I`c````````````````",
"`````````````X.a`1.#`t`6`h`````````````h`x`t`o`1.a`J````````````",
"```````````v`5`H`t.e`````````````````````h``.e`t`H`i`v``````````",
"`````````M`g`N`P```x.``.```````````````0`U`#`Z```P`N`G`y````````",
"```````v`g`d`n``.j`N`U`N`I`````````````n`d`U`1`C```n`d`G`c``````",
"`````J`5`1`n`h.p`1`u`u`O`1`S```````````Z`d`u`O`1.l`J..`1`5`J````",
"````.a`R`w`J.p`d`u`u.d.d`u`1`p`````````W`1`u.d`O`d.l```w`R`S````",
"```c`1`T```b`1`O.d.d.d`u.d`u`d`I`0`D`J`s`d`u.d.d`u`1`3```T`1`c``",
"```I`o`c`W`N`u`u.d`u.d.d.d.d`u`1`U.d`d`d.d.d`u.d.d`u`1`Z`c`o`I``",
"`h.r`b``.l.d`O`u`O`u`O`u`O`u.d`O.d`i`p`i`d.d.d`u`O`O`U.````b.r`h",
"`6`o`x..`R`d`1`1`d`1`1`1`d`d.d`u`U`M`````k`d`u`U`1`d`d`o`y`x`o`6",
"`3`d`h`c`f`F`F`F`F.m`f`f.m.j.d.d`U..`````J.l`U`E`C`C`C`C`4`h`d`3",
"`K.l````````````````````````.h`8`1`T`X`````k`1`c````````````.l`K",
"`U.j``````````````````````````.h`O`1`T.h`0.l`u`h````````````.j`U",
"`1`f`````````````````````````````n.r`d`U.d`U`u`D````````````.m`1",
"`1`f```````````````````````````````x.d`u.d`u`d.g`````````````f`1",
"`U.j`````````````````````````````````w`d`u`O`U.p`D``````````.j`U",
"`K`#`````````````````````````````````J`l`U.d`u`d.l`h````````.l`K",
"`3`U`4```````````````````````````````J`#`U`u.d`u`d`5`r`````4`U`3",
"`6`o`6```````````````````````````````A`8.d.d.d.d`O`d`T`J```j`o`6",
"`h.r`b``````````````````````````````.b.n.d.d`u.d.d`u`o`V```T`O`h",
"```I`N.h`````````````````````````````D`O.d.d.d`u.d`u`U`M`0`N`k``",
"```c`1`b`````````````````````````````c.d.d.d.d.d`O`1`.```T`1`c``",
"`````S`R`w```````````````````````````y`U`u.d`u`u`1`T```w`R.i````",
"`````J`5`1`Q````````````````````````.h`d`u`u`u`N`T``..`1`5`J````",
"```````q`g.r..```````````````````````Z`U`u`d`1`s``..`U`g`c``````",
"`````````y`g`1`w````````````````````.g`R`U`T.h```P`N`G`y````````",
"```````````v`5`R`t`y`````````````````h`2`c```v`T`H`5`q``````````",
"`````````````J.a`1`N`t`W`h`````````````J`Z`T`o`1`z`J````````````",
"`````````````````c`I.r`o`U.l`C`3.m.j.l`d`o.r`F`v````````````````",
"`````````````````````r`6`f.p`U`1`1.d`K`3`6`r````````````````````"
};
