/* XPM */
static char *___Camera_Ratio_Calculator_NORMAL[] = {
/* columns rows colors chars-per-pixel */
"32 32 213 2",
"   c black",
".  c #080808",
"X  c #101010",
"o  c #181818",
"O  c #202020",
"+  c #292929",
"@  c #313131",
"#  c #393939",
"$  c #414141",
"%  c #4A4A4A",
"&  c #525252",
"*  c #5A5A5A",
"=  c #626262",
"-  c #6A6A6A",
";  c #6A737B",
":  c #6A7B7B",
">  c #737373",
",  c #7B7B7B",
"<  c #086ABD",
"1  c #1073C5",
"2  c #417383",
"3  c #627B8B",
"4  c #6A7B83",
"5  c #6A7B8B",
"6  c #627B94",
"7  c #2983CD",
"8  c #2983D5",
"9  c #399CDE",
"0  c #5A83A4",
"q  c #5A83AC",
"w  c #5A8BAC",
"e  c #5A8BB4",
"r  c #6A838B",
"t  c #628394",
"y  c #62839C",
"u  c #6A8394",
"i  c #6A839C",
"p  c #6A8B9C",
"a  c #738383",
"s  c #7B8B83",
"d  c #7B8B8B",
"f  c #7B9483",
"g  c #7B948B",
"h  c #7B9494",
"j  c #7B949C",
"k  c #6283A4",
"l  c #628BA4",
"z  c #628BAC",
"x  c #6A8BA4",
"c  c #6A8BAC",
"v  c #6294B4",
"b  c #6A9CBD",
"n  c #739CB4",
"m  c #73A4B4",
"M  c #73A4BD",
"N  c #7BA4B4",
"B  c #7BA4BD",
"V  c #7BACB4",
"C  c #7BACBD",
"Z  c #5A94C5",
"A  c #5A94CD",
"S  c #5A9CCD",
"D  c #5A9CD5",
"F  c #5AA4D5",
"G  c #4AACE6",
"H  c #52B4E6",
"J  c #52B4EE",
"K  c #5AB4EE",
"L  c #5ABDEE",
"P  c #629CC5",
"I  c #629CCD",
"U  c #62A4CD",
"Y  c #6AA4CD",
"T  c #6AACCD",
"R  c #62A4D5",
"E  c #62A4DE",
"W  c #62ACD5",
"Q  c #62ACDE",
"!  c #6AA4D5",
"~  c #6AACD5",
"^  c #6AACDE",
"/  c #73A4C5",
"(  c #73ACC5",
")  c #7BACC5",
"_  c #62ACE6",
"`  c #62C5F6",
"'  c #6AC5F6",
"]  c #6ACDF6",
"[  c #6ACDFF",
"{  c #73CDFF",
"}  c #73D5FF",
"|  c #73DEFF",
" . c #7BD5FF",
".. c #6AE6FF",
"X. c #6AEEFF",
"o. c #F60000",
"O. c red",
"+. c #83836A",
"@. c #83947B",
"#. c #8B9473",
"$. c #8B947B",
"%. c #8B9C7B",
"&. c #9C9C6A",
"*. c #949473",
"=. c #949C73",
"-. c #949C7B",
";. c #9C9C73",
":. c #9C9C7B",
">. c #9CA473",
",. c #9CA47B",
"<. c #A4A47B",
"1. c #A4AC7B",
"2. c #B4AC6A",
"3. c #CDB45A",
"4. c #CDCD7B",
"5. c #F6CD4A",
"6. c #F6CD52",
"7. c #F6D552",
"8. c #F6D55A",
"9. c #FFD552",
"0. c #FFD55A",
"q. c #FFDE5A",
"w. c #FFD562",
"e. c #FFDE62",
"r. c #FFDE6A",
"t. c #FFDE7B",
"y. c #FFE66A",
"u. c #FFE673",
"i. c #FFEE73",
"p. c #FFEE7B",
"a. c #FFF67B",
"s. c #838383",
"d. c #8B8B8B",
"f. c #839483",
"g. c #83948B",
"h. c #839C8B",
"j. c #8B9483",
"k. c #8B9C83",
"l. c #8B9C8B",
"z. c #839494",
"x. c #839C94",
"c. c #839C9C",
"v. c #8B9494",
"b. c #8B9C94",
"n. c #949C83",
"m. c #949494",
"M. c #9C9C9C",
"N. c #949CA4",
"B. c #8BA48B",
"V. c #83A49C",
"C. c #8BA494",
"Z. c #8BA49C",
"A. c #8BAC9C",
"S. c #94A483",
"D. c #94A48B",
"F. c #9CA483",
"G. c #9CAC83",
"H. c #9CAC8B",
"J. c #94AC94",
"K. c #94AC9C",
"L. c #9CAC94",
"P. c #9CAC9C",
"I. c #9CB494",
"U. c #9CB49C",
"Y. c #83A4A4",
"T. c #8BACA4",
"R. c #8BACAC",
"E. c #83A4B4",
"W. c #83ACB4",
"Q. c #83ACBD",
"!. c #8BB4AC",
"~. c #83B4B4",
"^. c #8BB4B4",
"/. c #94B4A4",
"(. c #94B4AC",
"). c #9CBDA4",
"_. c #9CBDAC",
"`. c #A4AC83",
"'. c #A4AC8B",
"]. c #A4B48B",
"[. c #ACB483",
"{. c #ACB48B",
"}. c #A4B494",
"|. c #A4B49C",
" X c #A4BD9C",
".X c #ACBD94",
"XX c #ACBD9C",
"oX c #B4BD94",
"OX c #A4A4A4",
"+X c #ACACAC",
"@X c #A4BDA4",
"#X c #B4B4B4",
"$X c #BDBDBD",
"%X c #B4C594",
"&X c #CDBD83",
"*X c #CDBD8B",
"=X c #CDC58B",
"-X c #CDC594",
";X c #D5D583",
":X c #FFEE83",
">X c #FFEE8B",
",X c #FFF68B",
"<X c #FFFF83",
"1X c #FFFF94",
"2X c #FFFF9C",
"3X c #FFE6A4",
"4X c #FFEEAC",
"5X c #FFF6B4",
"6X c #C5C5C5",
"7X c #CDCDD5",
"8X c #D5D5D5",
"9X c #DEDEDE",
"0X c #E6E6E6",
/* pixels */
"i p x x c c v v  . . . . . . .Z Z Z A S S S S S D F F E E Q Q _ ",
"i p p x x z z z  . . . .|  . .[ [ [ {  . . .S S S D F R R Q Q Q ",
"u u i i y l z z  .z w e e e L 1 8 9 G L ' [ { {  . . . . .W Q Q ",
"r u u t y y k k  .z w w w e L < < < < < < < 1 7 9 }  .}  . . . .",
"5 5 r u u y y y  .k 0 q w w L < < < < < < < < < < H S U R  . . .",
"4 4 5 5 t t t y  .k k 0 q q L < < < < < < < < < < J S U R R ^  .",
"4 4 4 5 5 3 t t  .y y k o.0 L < < < < < < < < < < K I U U R ~  .",
"; : 4 4 5 3 3 6  .o.o.o.o.o.L < < < < < < < < < < K P U U ! ~  .",
"; ; : 4 4 4 3 3  .O.O.O.o.o.o.< < < < < < < < < < J P o.U Y ~  .",
"$ $ $ $ $ $ $ $  .&     o.o.  < < < < < < < < < < K o.o.o.T T  .",
"$ & > d., & $ > v., - t o.  L < < < < < < < < < < o.o.o.o.o.o. .",
"& d.% * s.s.* & d.$Xm.-   t L < < < < < < < < < < J o.o.       .",
", - = 6X#XOX& , , , +XOXr t K < < < < < < < < < < K b o.  / (  .",
"#X$ s., > m.# #X@ * 0XM.r r K < < < < < < < < < < J n M   ( )  .",
"#X@ M.@ % 8X* d.> $X7XE.X. .L < < < < < < < < < < K m m B C )  .",
"OX% d.# +X9Xd.OX$X8XN.2  . . .] ' L G 9 8 1 < < < J N N V C Q. .",
"s.= - +X8XOX% $ d.s.& X   . a  . . . .{ { { { ] ` }  ... .W.~. .",
"& d.- s.OX> + o X @ +     . s s d d g h h j  . . . . . . . . . .",
"$ % d.#X> o   o @ X * &   . s s f g g z.x.x.c.c.V.Y.T.T.R.!.!.^.",
"$ $ +.+   O , +X- X + X . o @.f.f.f.g.h.h.b.b.Z.Z.Z.A.T.T.(.(.(.",
"$ $ & O # d.- + O . $ , = & $.j.j.k.k.l.l.B.C.C.C.K.K.K./././._.",
"$ $ & # O o O O X   $ #.#.$.$.%.k.k.n.D.D.D.D.J.J.J.P.U.U.U.).).",
"$ $ * $ o + O X X % = *.*.-.-.-.-.S.S.S.F.H.H.H.L.I.}.}.|. X X@X",
"$ $ % = $ O o % > * *.=.;.;.:.:.,.,.F.G.G.`.'.].].].}.}..X.XXXXX",
"$ $ $ $ & > , * &.&.;.;.>.>.<.<.<.1.1.`.`.`.[.{.{.{.{..X.X.XoX%X",
"5.6.7.7.6.7.7.8.0.0.0.0.0.0.0.0.0.0.0.0.0.0.0.0.8.7.7.7.7.6.6.5.",
"7.    &X4X*X  =X5X      5X  5X-X  -X5X5X-X    5X=X  *X4X  3Xt.7.",
"9.  w.  y.  a.  <X<X  <X<X  <X  <X  <X<X  <X<X<X  a.  y.  0.0.9.",
"q.    3.p.      1X1X  1X1X  1X  1X  1X1X  1X1X1X      p.  r.e.q.",
"e.  u.  :X  1X  2X2X  2X2X  2X  2X  2X2X  2X2X2X  1X  :X  u.y.e.",
"y.  p.  :X  1X  2X2X  2X2X  2X4.  4.2X2X4.    2X  1X  :X      y.",
"2.i.:X>X>X:X>X,X,X,X,X,X,X,X,X,X,X,X,X,X,X,X,X,X,X>X>X>X>X:Xi.;X"
};
