/* XPM */
static char *SublimeText_xpm[] = {
/* width height num_colors chars_per_pixel */
"    32    32      256            2",
/* colors */
"`` c #040204",
"`. c #847e6c",
"`# c #bcbebc",
"`a c #c47e24",
"`b c #84663c",
"`c c #444244",
"`d c #9c9a8c",
"`e c #a47e44",
"`f c #dc9e44",
"`g c #6c624c",
"`h c #8c8e8c",
"`i c #e48214",
"`j c #c46a0c",
"`k c #dcdadc",
"`l c #74726c",
"`m c #54524c",
"`n c #9c7e5c",
"`o c #a46e2c",
"`p c #74664c",
"`q c #ecba74",
"`r c #e48e2c",
"`s c #847254",
"`t c #645a4c",
"`u c #242224",
"`v c #a48e6c",
"`w c #dcb274",
"`x c #cc8e34",
"`y c #848684",
"`z c #fc7e04",
"`A c #bc9e6c",
"`B c #9c8e74",
"`C c #a4a6a4",
"`D c #6c6a64",
"`E c #5c5a4c",
"`F c #fcc664",
"`G c #947244",
"`H c #dc8a24",
"`I c #bc8234",
"`J c #94866c",
"`K c #746e64",
"`L c #343234",
"`M c #f4860c",
"`N c #cccecc",
"`O c #fc9e2c",
"`P c #e47204",
"`Q c #eceaec",
"`R c #f4ae54",
"`S c #141214",
"`T c #8c8274",
"`U c #94662c",
"`V c #a49a8c",
"`W c #64625c",
"`X c #949694",
"`Y c #7c7a74",
"`Z c #947e64",
"`0 c #fcba5c",
"`1 c #8c7a64",
"`2 c #6c5e4c",
"`3 c #ac926c",
"`4 c #f48624",
"`5 c #7c7e7c",
"`6 c #c48644",
"`7 c #4c4a4c",
"`8 c #a48a5c",
".` c #948e84",
".. c #dc760c",
".# c #5c524c",
".a c #7c664c",
".b c #f48e1c",
".c c #8c724c",
".d c #dc9a3c",
".e c #8c867c",
".f c #fca634",
".g c #fcb64c",
".h c #6c665c",
".i c #c4c6c4",
".j c #846e4c",
".k c #e4e2e4",
".l c #7c766c",
".m c #a47234",
".n c #645e4c",
".o c #2c2a2c",
".p c #d4923c",
".q c #9c968c",
".r c #5c5a5c",
".s c #3c3a3c",
".t c #fc8604",
".u c #1c1a1c",
".v c #847e7c",
".w c #949294",
".x c #f4962c",
".y c #8c8a8c",
".z c #fcaa44",
".A c #846a4c",
".B c #9c9a9c",
".C c #ac7e3c",
".D c #ec8624",
".E c #d46e0c",
".F c #747674",
".G c #545654",
".H c #9c8254",
".I c #746a54",
".J c #f4ba6c",
".K c #ac8a64",
".L c #9c9284",
".M c #acaeac",
".N c #6c6e6c",
".O c #fcca64",
".P c #947a54",
".Q c #dc8a34",
".R c #bc8a54",
".S c #7c6e54",
".T c #d4d6d4",
".U c #f4f2f4",
".V c #fcae4c",
".W c #a49e94",
".X c #646664",
".Y c #948264",
".Z c #fcc264",
".0 c #b49674",
".1 c #cc8634",
".2 c #544e4c",
".3 c #94928c",
".4 c #fc920c",
".5 c #8c765c",
".6 c #8c8a84",
".7 c #fcaa3c",
".8 c #84827c",
"#` c #040604",
"#. c #fc7a04",
"## c #eca654",
"#a c #b46a14",
"#b c #a47a4c",
"#c c #d47a24",
"#d c #9c6e34",
"#e c #a49284",
"#f c #c4823c",
"#g c #c4c2c4",
"#h c #acaaac",
"#i c #d4d2d4",
"#j c #ac8654",
"#k c #cccacc",
"#l c #dc7204",
"#m c #e4b674",
"#n c #ac824c",
"#o c #9c8664",
"#p c #fc861c",
"#q c #9c7a4c",
"#r c #846a44",
"#s c #cc923c",
"#t c #9c927c",
"#u c #7c6a54",
"#v c #8c7654",
"#w c #ac8e6c",
"#x c #444644",
"#y c #dcdedc",
"#z c #242624",
"#A c #fc8204",
"#B c #bc8634",
"#C c #343634",
"#D c #eceeec",
"#E c #141614",
"#F c #fcbe5c",
"#G c #4c4e4c",
"#H c #5c564c",
"#I c #e4e6e4",
"#J c #2c2e2c",
"#K c #5c5e5c",
"#L c #3c3e3c",
"#M c #fc8a04",
"#N c #1c1e1c",
"#O c #9c9e9c",
"#P c #f4be6c",
"#Q c #fcb24c",
"#R c #cc8a34",
"#S c #747274",
"#T c #545254",
"#U c #746654",
"#V c #84725c",
"#W c #645a54",
"#X c #6c6a6c",
"#Y c #5c5a54",
"#Z c #fcc66c",
"#0 c #f48614",
"#1 c #a49a94",
"#2 c #646264",
"#3 c #7c7a7c",
"#4 c #6c5e54",
"#5 c #948e8c",
"#6 c #8c8684",
"#7 c #fca63c",
"#8 c #fcb654",
"a` c #6c6664",
"a. c #645e54",
"a# c #d49244",
"aa c #ec862c",
"ab c #9c825c",
"ac c #dc8a3c",
"ad c #7c6e5c",
"ae c #94826c",
"af c #fc9214",
"ag c #848284",
"ah c #000000",
"ai c #000000",
"aj c #000000",
"ak c #000000",
"al c #000000",
"am c #000000",
"an c #000000",
"ao c #000000",
"ap c #000000",
"aq c #000000",
"ar c #000000",
"as c #000000",
"at c #000000",
"au c #000000",
"av c #000000",
"aw c #000000",
"ax c #000000",
"ay c #000000",
"az c #000000",
"aA c #000000",
"aB c #000000",
"aC c #000000",
"aD c #000000",
"aE c #000000",
"aF c #000000",
"aG c #000000",
"aH c #000000",
"aI c #000000",
"aJ c #000000",
"aK c #000000",
"aL c #000000",
"aM c #000000",
"aN c #000000",
"aO c #000000",
"aP c #000000",
"aQ c #000000",
"aR c #000000",
"aS c #000000",
"aT c #000000",
"aU c #000000",
"aV c #000000",
"aW c #000000",
"aX c #000000",
"aY c #000000",
"aZ c #000000",
"a0 c #000000",
"a1 c #000000",
"a2 c #000000",
"a3 c #000000",
"a4 c #000000",
"a5 c #000000",
"a6 c #000000",
"a7 c #000000",
"a8 c #000000",
/* pixels */
"````````#`#`#`#`#`#`#`#`#`#`#`#`#`#`#`#`#`#`#`#`#`#`#`#`````````",
"``````.G.w#5.w.w.w.w.w.w.w.w.w.w.w.w.w.w.w.w.w.w.w.w#5`h#C``````",
"````#N#h`C`C`C`C`C`C`C`C`C`C`C`C`C`C`C`C`C`C`C`C`C`C`C.M#5``````",
"`````7#O.B.B.B.B.B.B.B.B.B.B.B.B.B.B.B.B.B.B.B.B.B.B.B.B`X#C````",
"``#C.i`h`X`X`X`X.w`X.w`X.w`X`X`X`X`X`X.w`X.w`X.w`X.w`X.w`X`N.u``",
"``#K#iag`h`h`h`h`h`h`h#5.3.L#1#1#1.q.L.w`h`h`h`h`h`h`h#5`y.k#L``",
"``#K#i.F.y`y#6`y#6`y.y.y.q`V`B`B`B#e`d.L.y#6`y#6`y#6`y`yag#y#L``",
"``#K`N#Sag`5`5`5`5.v#6.L#o.C#R.p`x#B`eae.`.v`5`5`5`5ag`5#3#I.s``",
"``#K#i#X.F.F#3.F#3#3.e`n.d#F.Z.O#Z.Z.g#s`T#3.F#3.F.F.F#S.F.k.s``",
"``.r`N#K#S.N#X.N#X.l`Z`f.Z`0`0`w#m.J#Z`q`T`K.N#X.N#X#S#X.N.k#L``",
"``.r`N.r.X.Xa`.Xa``K`8#8#Q#8`A`3.K#w.0ae`K#X.X.Xa`.X.X.X#X.k.s``",
"``.r.i.G#2#K#K#2#Ka`.K#Q.V#Q`I#qab.Y`1`K.h#K#2#K#K#2#K.r#2#y.s``",
"``.r#k#G#K.r.r.r.r`W#V`R.7.z#7`r`a#d.c`s.ha..r.r.r.r.r.G#K.k#C``",
"``.G#k#x#T#G#G#G#G.G.n`n##.7.f#7.f`O`H`o#U`t#G#G#G#G.2#G.G.k#C``",
"``.G.i`c`7#G`7#G`7#G`m`t#u#ja#.xaf#M.4.t`o#4`m`7#G`7#G`7#T#y.s``",
"``.G.i`c#G#G`7#G`7.2`m`t`2`2`p.P.R.b`z.t`i.a`m#G`7#G`7`7#T#y.s``",
"``.G.i`c#G#G`7#G#G`m`t`g`p.a#U.a.P#f#A#A#A.j`m`7#G`7#G`7#T#y#C``",
"``.G.i`c#G`7#G`7.2#Y`b`j#a`U#r.c`G..#A`z#0#u`m`7#G`7#G`7#G#y.s``",
"``.G#g`c#G`7#G`7.2`E#c`z`z#.`P.E`P`z#.`z#f.n.2#G`7#G#G`7#T#y#C``",
"``#T#g`c#G`7#G`7#G#H#b#p#.#.#.#.#.#.#A.Q#u.##G`7#G`7#G`7#T`k#C``",
"``.G`#`c#G#G`7#G#G`m`t.P`6.Q.D`4.D.Q#n#U#H.2#G`7#G`7#G`7#G`k#C``",
"``#T#g`c#G#G`7#G`7.2.2#H`t#U.S`s.S#U`t.#.2#G`7#G`7#G#G`7#T.T#C``",
"``#G.i#L.2#G`7#G`7#G`7#G.2`m.#`m`m`m.2#G#G`7#G`7#G`7#G`7#G`k#C``",
"``#T`#`c#G`7`7`7`7`7#G`7`7`7`7`7`7`7`7`7`7`7`7`7`7`7#G`7#G.T#C``",
"``#G`N#G#G#G#T#G#G#T#G`m#G`m#G`m#G`m#G#G#G#G#G#T#G#T#G`7#2#y`L``",
"```7.k.X.G#G#G#G#G#G#G#G#G#G#G#G#G#G#G#G#T#G#G#G#G#G#T#T`5#D#J``",
"``#x#I.r#L.o#z.o#z.o#z.o#z.o#z.o#z.o#z.o#z.o#z.o#z#z#J`c.F`Q#J``",
"``#x#D#G`u.u`S#E`S`S`S`S`S`S#E`S`S`S`S`S`S`S#E`S#E`S#N`u#S#D#J``",
"```c#D`##X.X.X.X.X.X.X.X.X.X#2.X.X.X.X.X.X.X.X#2.X.X#2#3`N#I#J``",
"``#C`Q.k#D.U#D.U`Q.U#D.U`Q#D#D.U#D#D.U#D.U#D.U#D.U`Q#D#D.k.k#N``",
"`````X`k#k#k#k#k#k#k#k#k#k#k#k#k#k#k#k#k#k#k#k#k#k#k#k#k.T`y````",
"````#`#J#J#J.o#J#J.o#J#J#J.o#J#J#J#J.o#J.o#J#J.o#J#J#J#J#J``````"
};
